<?xml version="1.0" encoding="UTF-8" standalone="no"?>
<svg
   xmlns:dc="http://purl.org/dc/elements/1.1/"
   xmlns:cc="http://creativecommons.org/ns#"
   xmlns:rdf="http://www.w3.org/1999/02/22-rdf-syntax-ns#"
   xmlns:svg="http://www.w3.org/2000/svg"
   xmlns="http://www.w3.org/2000/svg"
   width="600"
   height="600"
   viewBox="0 0 600 600"
   version="1.1"
   id="svg8">
  <defs
     id="defs2">
    <pattern
       id="EMFhbasepattern"
       patternUnits="userSpaceOnUse"
       width="6"
       height="6"
       x="0"
       y="0" />
    <pattern
       id="EMFhbasepattern-8"
       patternUnits="userSpaceOnUse"
       width="6"
       height="6"
       x="0"
       y="0" />
    <pattern
       id="EMFhbasepattern-0"
       patternUnits="userSpaceOnUse"
       width="6"
       height="6"
       x="0"
       y="0" />
    <pattern
       id="EMFhbasepattern-07"
       patternUnits="userSpaceOnUse"
       width="6"
       height="6"
       x="0"
       y="0" />
  </defs>
  <metadata
     id="metadata5">
    <rdf:RDF>
      <cc:Work
         rdf:about="">
        <dc:format>image/svg+xml</dc:format>
        <dc:type
           rdf:resource="http://purl.org/dc/dcmitype/StillImage" />
        <dc:title></dc:title>
      </cc:Work>
    </rdf:RDF>
  </metadata>
  <g
     id="layer2">
    <g
       id="g1008"
       transform="matrix(0.93358845,0,0,0.63512559,879.96034,-251.06828)">
      <path
         style="fill:#d7e6ec;stroke-width:1.33333"
         d="m -735.33426,1338.6667 c -0.45322,-0.7334 -1.94819,-1.3334 -3.32215,-1.3334 -6.34812,0 -60.71177,-65.8788 -147.98635,-179.3325 -48.89225,-63.5581 -51.8985,-67.7983 -53.63235,-75.646 -3.62577,-16.4112 -2.2665,-37.0183 3.16502,-47.983 5.96379,-12.0392 20.23509,-23.0607 35.05461,-27.0721 10.32191,-2.794 24.78088,-2.1682 34.05428,1.474 9.35668,3.6749 15.88646,8.4513 55.45014,40.561 20.3303,16.4999 40.23152,32.2498 44.22497,34.9998 12.19754,8.3995 21.45968,6.0013 23.69489,-6.1352 0.42524,-2.309 0.89101,-94.49768 1.03505,-204.86385 l 0.26188,-200.66575 2.84534,-8.28556 c 9.37252,-27.29263 30.66429,-41.75531 59.05225,-40.11197 18.31512,1.06024 37.23359,13.00546 45.94403,29.00932 7.26013,13.33914 7.44362,16.30043 7.46881,120.53443 l 0.0232,95.81291 5.81213,-7.89516 c 21.62287,-29.37242 62.82405,-32.38707 87.40603,-6.39544 12.67485,13.4017 17.36714,28.4141 17.42233,55.74062 l 0.0264,13.07687 6.33334,-8.31615 c 11.40327,-14.97334 26.64167,-22.73659 45.0001,-22.92549 24.17849,-0.24876 45.51872,13.9785 54.12582,36.085 2.47518,6.35722 3.11909,11.3194 3.76351,29.00265 l 0.77746,21.33324 2.99049,-4.80862 c 4.81839,-7.74785 15.73238,-17.04176 25.37846,-21.61129 8.38603,-3.9726 9.91082,-4.24662 23.63116,-4.24662 13.70063,0 15.25332,0.27792 23.57286,4.21934 16.91073,8.01156 26.73423,20.10791 29.92751,36.8518 2.47265,12.96542 2.37829,113.27452 -0.15076,160.26132 -1.79187,33.2908 -2.08076,35.4857 -7.2795,55.3102 -14.96275,57.058 -43.49939,127.5483 -53.69438,132.6342 -3.65006,1.8208 -25.02819,2.0547 -187.83568,2.0547 -121.03964,0 -183.99799,-0.4549 -184.5409,-1.3333 z m -45.69967,-562.28058 c -83.1712,-42.99562 -126.47635,-139.84287 -102.96451,-230.26891 9.53578,-36.67443 26.33021,-65.9266 53.27402,-92.79152 21.49437,-21.43143 42.77568,-35.35509 71.04642,-46.48333 25.44956,-10.01774 58.39343,-13.53077 96.3439,-10.27381 22.47203,1.92858 31.32645,3.82646 48.66677,10.43135 47.48868,18.08833 87.22022,54.56682 109.28501,100.33721 32.10707,66.60169 26.84646,141.07491 -14.36289,203.33241 -16.03814,24.2298 -49.79456,53.71332 -76.42507,66.75116 -13.08895,6.40811 -13.16371,6.31406 -13.16371,-16.56061 V 741.6339 l 8.33335,-5.25341 c 62.43369,-39.35881 91.04062,-111.48031 72.37359,-182.46243 -7.44914,-28.32565 -21.09055,-51.81701 -42.60678,-73.37161 -32.12527,-32.18254 -71.2332,-48.54233 -116.04002,-48.54233 -43.28616,0 -82.18144,15.55677 -113.26875,45.30357 -33.52988,32.08407 -51.4703,73.41488 -51.45321,118.53701 0.0209,55.10962 28.07597,107.9472 72.81837,137.1425 18.62724,12.15465 16.63541,8.45604 16.21252,30.10487 -0.44682,22.8739 -0.0716,22.59786 -18.06901,13.29405 z m 2.56953,-83.68526 c -17.86536,-17.06834 -29.76065,-36.82683 -36.94344,-61.36431 -5.004,-17.09443 -5.94641,-42.81406 -2.22291,-60.66639 5.39908,-25.8859 18.1789,-49.97427 35.9319,-67.72716 50.22195,-50.22161 132.32671,-52.1785 183.33939,-4.36971 18.46348,17.30385 30.61235,36.18261 37.50283,58.27759 14.96288,47.97986 0.40976,103.15018 -35.98325,136.41114 -10.51924,9.61391 -11.73664,8.97702 -12.21232,-6.38896 l -0.3849,-12.43272 4.82913,-5.34523 c 18.55502,-20.53804 28.33032,-48.78376 26.88678,-77.68935 -0.92169,-18.45629 -3.22389,-27.24065 -11.54953,-44.06883 -11.33093,-22.90259 -27.64262,-39.2237 -50.03169,-50.06056 -16.55061,-8.0109 -29.06028,-10.83207 -48.03175,-10.83207 -19.54262,0 -32.02898,2.90518 -49.33343,11.47834 -27.16806,13.45988 -45.78534,35.16849 -56.09918,65.41422 -3.0421,8.92108 -3.74003,13.62309 -4.26487,28.73296 -0.5324,15.32744 -0.20217,19.77442 2.17824,29.3332 3.97357,15.95616 14.22097,35.92221 24.14885,47.0517 l 8.13384,9.11829 -0.38181,12.1997 c -0.49936,15.95606 -1.64857,16.173 -15.51188,2.92815 z m 36.10515,-69.03094 c -0.74332,-0.91666 -2.33325,-4.58609 -3.53318,-8.15428 -15.14485,-45.03611 27.18404,-90.78136 72.96724,-78.85643 30.92038,8.05368 51.08533,37.79204 46.23091,68.17928 -1.75091,10.96024 -4.53206,17.83143 -7.21736,17.83143 -1.12584,0 -3.95229,-1.70236 -6.28096,-3.78302 -4.15502,-3.71247 -4.20514,-3.89751 -2.68771,-9.92371 11.67269,-46.35615 -43.65214,-78.64122 -77.22725,-45.06633 -12.13089,12.13081 -16.02022,27.80089 -11.6256,46.83936 l 1.60111,6.9363 -4.2888,3.83204 c -4.77587,4.26719 -5.9699,4.5929 -7.9384,2.16536 z"
         id="path1038" />
      <path
         style="fill:#c9d9e4;stroke-width:1.33333"
         d="m -737.62549,1337.806 c -6.32347,-3.3342 -34.90087,-36.0995 -72.51252,-83.1389 -35.06512,-43.8546 -117.69798,-151.026 -125.06187,-162.2001 -9.49532,-14.4083 -9.69942,-43.5985 -0.41561,-59.4401 4.87747,-8.3227 14.37699,-16.5783 24.70805,-21.4727 8.31953,-3.9414 9.87223,-4.2194 23.57286,-4.2194 13.73735,0 15.21586,0.2667 23.33338,4.2076 5.76127,2.7971 22.52331,15.4468 50.00011,37.7335 42.60269,34.5554 52.16276,41.3579 58.15364,41.3794 5.30049,0.019 9.98389,-4.4761 11.67951,-11.21 1.07793,-4.2808 1.50033,-61.4682 1.50033,-203.12207 0,-135.25876 0.45131,-199.60511 1.43738,-204.93921 2.28538,-12.36267 6.99787,-21.36278 15.78834,-30.15319 29.07096,-29.07076 76.24276,-18.8595 92.87942,20.10559 2.43194,5.69589 2.59556,11.20306 3.22844,108.66617 l 0.66667,102.6662 5.14054,-7.68302 c 6.59677,-9.85951 14.00874,-16.26461 24.85952,-21.48253 8.0135,-3.85353 9.72183,-4.16753 22.66671,-4.16623 18.01384,0.001 25.98823,2.96062 37.82727,14.03537 15.08486,14.11106 19.50619,26.40595 19.50619,54.24305 0,17.58069 0.92824,20.88957 4.12935,14.7198 3.17468,-6.11883 11.00787,-14.57992 17.67178,-19.08833 28.97014,-19.59948 67.52023,-8.7853 82.63914,23.18216 4.05549,8.57495 4.23717,9.70779 4.88604,30.46653 0.37066,11.85823 1.06608,21.95034 1.5454,22.42693 0.47931,0.47658 2.6644,-1.73937 4.85572,-4.92435 20.44186,-29.71101 59.57938,-34.61517 85.66292,-10.73406 4.06445,3.72126 8.9256,9.66954 10.80255,13.21839 6.46327,12.22048 6.88772,19.11058 6.031,97.9012 -0.94715,87.1059 -1.66861,98.0911 -8.17401,124.4571 -12.7765,51.7826 -40.97451,124.8124 -52.73168,136.5696 l -4.18969,4.1896 -184.23115,-0.1414 c -157.18438,-0.1207 -184.76328,-0.4221 -187.85573,-2.0526 z m -42.06042,-561.77477 c -52.7176,-26.39118 -90.93474,-75.80538 -105.20463,-136.02805 -4.91304,-20.73432 -5.79905,-54.55339 -2.00854,-76.66632 7.36024,-42.93785 25.84232,-78.5352 56.79298,-109.38591 45.25267,-45.10654 98.82909,-63.69777 165.43866,-57.40785 23.34554,2.20451 37.3346,5.65194 56.54979,13.936 61.62358,26.5672 104.47367,79.45653 118.98186,146.85779 4.32237,20.08063 4.36014,58.46155 0.0769,78.19666 -5.99552,27.6249 -16.46377,52.42864 -31.42924,74.46931 -10.09361,14.86555 -31.19758,36.88659 -46.04984,48.05096 -14.39281,10.81897 -35.02307,22.28954 -39.05944,21.7173 -2.98446,-0.42311 -3.08075,-0.88105 -3.45613,-16.43517 -0.21237,-8.79996 -0.0617,-17.30685 0.33473,-18.90422 0.42924,-1.72939 4.05451,-4.92936 8.96149,-7.91018 25.40027,-15.42974 48.62321,-41.48493 61.66463,-69.18516 12.72592,-27.03012 17.96082,-56.26247 15.25848,-85.20536 -3.75139,-40.17913 -19.92526,-74.56771 -48.37007,-102.84361 -24.16613,-24.02264 -50.84752,-38.33351 -84.79652,-45.48158 -15.585,-3.28147 -47.08179,-3.28147 -62.66679,0 -33.03875,6.95642 -59.6575,20.8293 -82.83219,43.16962 -33.90938,32.68852 -50.74689,71.75359 -51.01511,118.36126 -0.0596,10.36205 0.69343,23.11542 1.69271,28.66653 2.31976,12.88652 9.40185,34.57547 14.84445,45.46125 12.17461,24.35046 34.516,50.00765 55.31,63.51882 19.7275,12.81821 18.00004,9.97518 18.00004,29.62412 0,12.8493 -0.45284,17.44441 -1.83188,18.58891 -1.42443,1.18216 -4.80235,0.0332 -15.18638,-5.16512 z m 2.34772,-83.55033 c -20.21045,-19.06539 -33.50611,-42.80271 -39.47567,-70.47764 -2.73467,-12.67793 -2.65859,-38.49169 0.15326,-51.99976 10.27429,-49.35754 47.88387,-88.5732 97.32638,-101.48257 11.30677,-2.95218 16.17058,-3.48132 32.00006,-3.48132 15.67142,0 20.72466,0.53931 31.49191,3.36102 23.71253,6.21419 41.20918,15.97939 59.00929,32.93415 12.90748,12.29451 20.20595,22.36064 28.09084,38.74327 9.77325,20.30609 11.86866,30.08786 11.98006,55.92533 0.0821,19.05721 -0.31899,23.51583 -2.99909,33.33318 -6.24019,22.85819 -17.93139,43.18038 -34.32562,59.6664 -12.92832,13.0007 -13.91388,12.83552 -13.91388,-2.33181 v -11.99843 l 7.31751,-9.00147 c 8.97045,-11.03482 17.00434,-26.82337 20.86321,-41.00133 4.46856,-16.41798 4.14181,-42.4014 -0.73773,-58.6664 -14.59066,-48.63513 -56.92084,-80.66631 -106.60299,-80.66631 -63.81663,0 -114.4572,52.83935 -111.11387,115.93836 1.44668,27.30367 10.49615,49.55897 28.10166,69.11027 l 7.82816,8.69333 -0.81655,6.79521 c -0.44911,3.73737 -0.82177,8.74522 -0.82815,11.12854 -0.0172,6.43549 -2.69466,5.52848 -13.34879,-4.52202 z m 34.72897,-71.03522 c -2.61382,-4.88391 -5.39154,-18.04355 -5.35913,-25.3891 0.17033,-38.60028 36.68965,-67.35222 74.48134,-58.63975 29.70441,6.84804 50.84833,38.25863 45.75343,67.96953 -1.80235,10.51044 -3.98738,15.95024 -6.4068,15.95024 -0.9414,0 -3.3469,-1.4066 -5.34557,-3.12576 l -3.63392,-3.12575 1.74265,-8.21173 c 4.56137,-21.49403 -4.86007,-41.81471 -24.26577,-52.33766 -7.91982,-4.29461 -9.05654,-4.53211 -21.69117,-4.53211 -11.99613,0 -14.06884,0.37656 -20.66671,3.75457 -16.07456,8.22993 -25.38481,22.22982 -26.32066,39.57856 -0.35542,6.58883 0.14966,12.22144 1.48068,16.51241 l 2.02011,6.51244 -3.82086,3.82085 c -4.48662,4.48659 -6.1052,4.74321 -7.96762,1.26326 z"
         id="path1036" />
      <path
         style="fill:#b2c9d9;stroke-width:1.33333"
         d="m -744.13493,1331.0219 c -11.41926,-10.7723 -30.40284,-32.7924 -60.07819,-69.6882 -43.26122,-53.7872 -128.86428,-165.0575 -132.72772,-172.5247 -7.47797,-14.4534 -7.35311,-38.0226 0.27992,-52.8387 11.9584,-23.212 41.27136,-34.9635 66.23547,-26.5538 10.62581,3.5796 14.83077,6.6158 61.74618,44.5848 21.7469,17.5999 41.44597,33.0247 43.77572,34.2773 4.7436,2.5504 11.83996,3.0517 15.49658,1.0948 1.33027,-0.712 3.42418,-3.8074 4.65313,-6.8789 2.05658,-5.1398 2.22587,-21.1432 2.12671,-201.03795 -0.0725,-131.55063 0.35746,-198.941 1.31514,-206.1202 2.74806,-20.6009 13.53156,-36.01315 31.3268,-44.77366 8.85291,-4.35826 9.91307,-4.55945 24.02549,-4.55945 14.38411,0 15.02521,0.1292 24.92357,5.02115 16.0543,7.93442 27.11973,22.33362 30.35011,39.49397 0.83568,4.43922 1.35199,44.28311 1.35199,104.33286 0,53.433 0.48952,97.15091 1.08781,97.15091 0.5983,0 2.3623,-2.24999 3.92,-4.99998 4.09809,-7.23482 15.93127,-18.30167 23.71528,-22.17943 28.32167,-14.10903 62.03655,-2.35047 75.33229,26.27326 4.77818,10.28672 6.56845,21.26143 6.67288,40.90596 l 0.0815,15.33327 3.59524,-4.5627 c 14.08975,-17.88119 25.10047,-25.42211 41.262,-28.25919 21.23598,-3.72788 45.53811,7.80735 56.74533,26.93471 5.67505,9.6856 7.58814,19.7925 7.58814,40.08846 0,10.06928 0.52309,18.63106 1.16244,19.0262 0.63935,0.39513 3.29429,-2.49237 5.89989,-6.41664 5.80322,-8.74023 13.92046,-15.55054 24.36423,-20.44144 7.1448,-3.34596 9.32312,-3.70284 22.60159,-3.70284 14.03369,0 15.11137,0.20511 23.95633,4.55945 10.49797,5.16809 20.35726,14.29615 24.75843,22.92216 6.03264,11.82357 6.49281,17.1804 6.54316,76.16862 0.0576,67.4955 -1.77566,111.2058 -5.439,129.682 -9.95241,50.1954 -43.02978,139.4853 -56.75768,153.2131 L -365.69711,1340 H -550.15735 -734.6176 Z M -779.3712,775.90086 c -19.15235,-9.79256 -32.63039,-19.81245 -50.02265,-37.18801 -24.61596,-24.59234 -39.46866,-48.54566 -49.83419,-80.36886 -7.31526,-22.45855 -9.45417,-37.04222 -9.33873,-63.67394 0.14937,-34.4605 5.22559,-56.105 20.48191,-87.33294 10.2003,-20.87884 21.63923,-36.88801 38.10585,-53.33048 42.63232,-42.56977 98.87472,-62.94345 160.01649,-57.96561 47.99292,3.90732 89.3879,22.95467 123.77232,56.95218 31.50708,31.15254 50.64772,68.43115 58.36727,113.67698 2.7884,16.34348 2.15123,48.71216 -1.3052,66.30338 -11.83351,60.22556 -48.23043,110.5768 -101.01215,139.73946 -7.25635,4.00923 -14.25991,7.28952 -15.56348,7.28952 -2.17729,0 -2.34001,-1.53932 -2.00017,-18.92171 l 0.36994,-18.9217 11.71766,-7.89686 c 76.52983,-51.57559 96.83225,-153.42398 45.84931,-230.00584 -51.66443,-77.60552 -157.27807,-96.90475 -234.23401,-42.80258 -12.88557,9.05892 -30.74537,27.14412 -39.75323,40.25494 -10.31166,15.00849 -19.7753,35.80089 -24.53774,53.91144 -3.82998,14.56465 -4.14124,17.42679 -4.24665,39.04982 -0.0875,17.95371 0.44555,25.88346 2.31219,34.39461 10.63313,48.48298 37.99268,85.85909 82.5588,112.78426 l 3.66668,2.21527 v 18.63583 c 0,21.99542 0.68301,21.40881 -15.37022,13.20084 z m -0.90601,-87.04357 c -26.58475,-26.7974 -39.69972,-60.94291 -37.96883,-98.85388 0.90387,-19.79721 4.2385,-32.94263 12.85266,-50.66644 13.85371,-28.50432 34.24665,-48.49226 63.42539,-62.16578 19.12148,-8.96057 28.73029,-10.92741 53.96717,-11.04659 19.05012,-0.09 23.5197,0.30984 33.3334,2.98166 46.64189,12.69842 81.95124,48.13418 94.28253,94.62003 4.83533,18.22798 5.07298,45.95397 0.54521,63.61028 -3.69727,14.41768 -12.61986,33.91199 -20.65846,45.13515 -7.15344,9.98732 -24.26231,26.7097 -26.13983,25.54933 -0.74948,-0.4632 -1.36268,-5.71814 -1.36268,-11.67763 0,-10.7288 0.0535,-10.89878 5.42494,-17.26908 11.98024,-14.20775 20.90601,-32.71632 24.75765,-51.33773 3.35229,-16.20712 1.99085,-38.77526 -3.32191,-55.06641 -16.57473,-50.82513 -66.61689,-83.59134 -118.10886,-77.33442 -26.73665,3.24884 -47.86295,13.5304 -66.87204,32.54468 -22.51438,22.52052 -32.49643,46.50206 -32.5178,78.12292 -0.02,29.54926 9.35447,54.27061 28.76731,75.86221 l 5.87038,6.52923 v 10.80404 c 0,9.8363 -0.23375,10.80405 -2.60953,10.80405 -1.50054,0 -7.30859,-4.73665 -13.6667,-11.14562 z m 36.99228,-70.53027 c -8.76763,-20.98374 -3.14638,-47.60331 13.58569,-64.33526 29.03407,-29.03388 77.61805,-20.83428 95.91549,16.18783 4.49494,9.09482 4.92864,10.99762 5.36227,23.52611 0.3662,10.58084 -0.056,15.10302 -1.88706,20.20957 -1.29736,3.61824 -2.96334,6.76972 -3.7022,7.0033 -0.73884,0.23359 -2.99317,-1.10509 -5.00962,-2.97482 -2.99702,-2.77898 -3.48197,-4.0574 -2.65666,-7.00332 0.5553,-1.98207 1.00963,-9.00374 1.00963,-15.60371 0,-10.34318 -0.49787,-13.01365 -3.60605,-19.34221 -9.52944,-19.40294 -31.89938,-31.03447 -51.57193,-26.81549 -16.14784,3.46308 -28.22564,12.97641 -35.08576,27.63603 -4.71409,10.07372 -5.64054,22.10793 -2.53307,32.90343 1.75655,6.10233 1.70186,6.52565 -1.24895,9.66662 -4.14693,4.41418 -6.4016,4.13586 -8.57178,-1.05808 z"
         id="path1034" />
      <path
         style="fill:#8fb0c7;stroke-width:1.33333"
         d="m -738.24952,1336.1496 c -13.41721,-9.7193 -64.42003,-71.9951 -150.26868,-183.4821 -51.27089,-66.5827 -51.98604,-67.7133 -53.73807,-84.9589 -3.60945,-35.5283 28.39999,-65.8166 63.1597,-59.7635 12.31372,2.1443 20.71974,6.6042 36.00765,19.1042 34.23481,27.9917 65.31437,52.8111 72.49243,57.8907 13.05749,9.2403 20.6872,8.8667 26.23447,-1.2847 2.22191,-4.0661 2.40038,-16.4244 3.02775,-209.65318 0.62646,-192.94766 0.81,-205.69166 3.04306,-211.28868 8.24832,-20.67402 23.07538,-32.81955 44.37401,-36.34881 23.20408,-3.84502 47.63596,9.09458 58.29393,30.87359 l 4.28923,8.76484 0.36562,102.63181 c 0.20109,56.44751 0.88924,103.15544 1.52923,103.79543 0.6626,0.66259 3.49771,-2.27347 6.58455,-6.81901 9.91972,-14.60736 22.69378,-22.92092 39.2932,-25.57267 10.32165,-1.64889 23.46079,0.48441 33.02016,5.3612 9.77932,4.989 20.31152,16.19626 25.33783,26.96185 4.45842,9.54925 4.50557,9.85158 4.98642,31.97364 0.35975,16.55053 0.91111,22.33323 2.12938,22.33323 0.90418,0 3.94789,-3.34521 6.76383,-7.4338 6.27652,-9.11316 13.68757,-15.32817 24.08325,-20.19655 7.07039,-3.31112 9.38793,-3.70284 21.90689,-3.70284 12.97098,0 14.65895,0.31215 22.96448,4.24662 17.50802,8.29386 28.54797,22.88375 31.61359,41.77904 0.77104,4.75242 1.40643,15.65532 1.41198,24.22866 0.005,8.57335 0.55297,15.92345 1.21653,16.33356 0.66357,0.41009 2.71306,-1.82513 4.55443,-4.96717 4.43761,-7.57216 14.93704,-17.24509 23.34111,-21.50373 32.12078,-16.27672 72.35313,3.36433 78.78229,38.46079 3.40102,18.56598 0.833,158.21668 -3.36035,182.73878 -4.72075,27.6061 -19.51299,76.4921 -33.99393,112.3443 -9.18834,22.7487 -20.6328,45.0335 -24.81776,48.3253 -3.37255,2.6529 -5.15541,2.6785 -186.35898,2.6785 h -182.95386 z m -40.50311,-560.55416 c -39.1205,-19.96156 -70.8081,-52.50736 -90.04012,-92.4787 -26.72973,-55.55437 -26.16052,-121.30883 1.52959,-176.69734 7.40663,-14.81547 11.06395,-20.61933 21.27423,-33.76037 28.24336,-36.35034 71.6268,-63.36401 118.02382,-73.49017 16.28425,-3.55404 64.97766,-3.55404 81.26191,0 79.09098,17.26163 137.6594,75.85204 156.1094,156.16804 4.38335,19.08151 5.02795,52.70052 1.41555,73.82808 -4.90275,28.6742 -15.46906,55.26825 -31.85354,80.17122 -10.23002,15.54873 -37.20657,42.34609 -53.5543,53.19857 -14.56643,9.66997 -29.34397,17.35069 -31.74789,16.50119 -1.85107,-0.65413 -2.43774,-33.16645 -0.64626,-35.81461 0.53878,-0.79642 4.2796,-3.54824 8.31294,-6.11517 39.65048,-25.23465 67.27594,-66.44494 75.26956,-112.28343 2.6156,-14.99891 2.65089,-41.10424 0.0755,-55.87251 -10.60333,-60.80373 -53.48213,-111.08116 -111.06311,-130.22683 -20.00628,-6.65209 -31.08213,-8.41164 -52.94878,-8.41164 -44.51324,0 -82.75278,15.24437 -114.54177,45.6626 -34.00075,32.53462 -51.78057,73.71294 -51.82568,120.02901 -0.0335,34.41324 9.31934,65.19524 28.6021,94.13484 9.15179,13.73502 30.97033,35.40425 44.43182,44.12776 18.75172,12.15177 16.79663,8.72218 16.37144,28.71843 -0.22455,10.56006 -0.91874,17.64812 -1.75562,17.92592 -0.76132,0.2527 -6.47667,-2.13899 -12.70076,-5.31489 z m 2.39827,-83.6002 c -22.3642,-20.49262 -37.49077,-50.94867 -40.95906,-82.46763 -6.33858,-57.60344 28.19081,-113.73228 82.98914,-134.90202 16.66421,-6.43773 27.60588,-8.34543 47.65679,-8.30906 14.9163,0.027 20.19723,0.61049 30.82524,3.40555 22.94158,6.0334 41.03892,15.93421 57.52367,31.47043 16.98077,16.00369 29.2991,36.13355 36.57925,59.77552 3.33576,10.83271 3.60253,13.43565 3.59074,35.03535 -0.0107,19.92732 -0.44233,24.89021 -2.95584,33.99984 -6.20083,22.47348 -24.04796,51.5731 -38.7925,63.25092 -7.16389,5.67386 -8.3651,4.33835 -7.81055,-8.6839 0.38307,-8.99545 0.66991,-9.73709 6.18829,-15.99992 17.97294,-20.39754 28.73234,-53.20842 26.28922,-80.16908 -6.9705,-76.9215 -82.31679,-123.95499 -154.21786,-96.26758 -24.87912,9.58037 -49.77767,33.37678 -60.6534,57.96858 -7.14305,16.15161 -9.16858,26.50805 -9.10776,46.5678 0.0496,16.37629 0.49731,20.10742 3.64863,30.40982 5.5376,18.10371 12.12008,29.92114 25.12368,45.10423 5.96833,6.96866 6.43438,8.03373 6.4175,14.6666 -0.02,7.8322 -1.07614,13.15222 -2.61116,13.15222 -0.54174,0 -4.91755,-3.60345 -9.72402,-8.00767 z m 33.06386,-76.27136 c -3.07363,-7.68173 -4.02941,-21.49832 -2.1223,-30.67976 9.82286,-47.29018 67.41624,-63.81853 101.02662,-28.99296 14.6602,15.19025 20.02929,40.99853 12.54162,60.28546 -1.66932,4.29989 -2.41886,4.43059 -6.66865,1.16281 -3.06674,-2.35811 -3.11966,-2.69256 -1.49655,-9.45844 3.95655,-16.49264 -1.61142,-34.87819 -14.15552,-46.74181 -10.81616,-10.2294 -17.07187,-12.60957 -33.16888,-12.62016 -11.93474,-0.008 -14.13608,0.38543 -20.98595,3.74906 -20.98428,10.30437 -31.80912,33.47537 -26.32277,56.34492 1.57189,6.5523 1.50848,7.46615 -0.68639,9.89144 -3.60017,3.97811 -5.46912,3.28779 -7.96123,-2.94056 z"
         id="path1032" />
      <path
         style="fill:#7da5c0;stroke-width:1.33333"
         d="m -742.31402,1331.6667 c -17.55557,-16.7215 -63.03689,-72.1116 -124.53435,-151.666 -49.44833,-63.9674 -68.55776,-89.8998 -71.72354,-97.3324 -10.89986,-25.5905 1.32658,-56.6773 27.32507,-69.4762 17.23772,-8.486 40.20884,-6.3832 56.17142,5.1421 3.80918,2.7503 23.73419,18.6254 44.27782,35.278 43.63396,35.3696 46.18016,37.1634 54.00419,38.0453 5.03705,0.5677 6.42041,0.1702 9.24806,-2.6574 1.82876,-1.8288 3.97104,-5.6516 4.76061,-8.4953 0.995,-3.5835 1.44098,-65.5279 1.45311,-201.83604 0.012,-129.18573 0.49172,-199.63946 1.39958,-205.3324 3.03612,-19.0387 13.88284,-33.97554 30.33023,-41.76728 8.42486,-3.99118 9.80861,-4.23251 24.26767,-4.23251 14.262,0 15.89234,0.27376 23.33338,3.91808 9.19295,4.50232 20.42415,15.09907 24.52719,23.14162 6.78164,13.29304 6.80621,13.72583 6.80621,119.88643 0,107.72442 -0.15296,105.70683 7.07847,93.36742 4.82738,-8.23727 17.0634,-19.2467 25.9174,-23.31938 6.71123,-3.08703 9.43041,-3.53679 21.73539,-3.59513 13.6355,-0.0647 14.37454,0.0865 24.22887,4.95447 16.40191,8.1025 26.9038,22.0673 30.24908,40.22353 0.80173,4.35133 1.45769,15.60127 1.45769,24.99989 0,10.1323 0.52563,17.08837 1.29129,17.08837 0.7102,0 3.6196,-3.14998 6.46533,-6.99997 7.41131,-10.02671 15.28822,-16.68547 25.41228,-21.48229 8.06132,-3.8195 9.93542,-4.174 21.49789,-4.06666 9.83991,0.0913 14.29064,0.78085 19.94356,3.08965 15.86641,6.48026 27.13474,18.64845 32.12891,34.69466 2.04329,6.56505 2.59431,12.25179 2.59431,26.77421 0,25.91756 0.80671,27.21281 9.22654,14.81415 15.6584,-23.05788 44.64847,-30.93299 70.07335,-19.03533 14.97316,7.00674 26.25192,21.58741 29.86666,38.61024 1.89874,8.94177 1.97692,88.73787 0.13093,133.60047 -1.8004,43.7538 -4.37685,58.8797 -17.48753,102.6662 -12.10072,40.4135 -35.50487,96.2894 -44.25922,105.6661 l -3.42328,3.6667 h -183.51279 -183.5128 l -8.74895,-8.3333 z m -38.4704,-557.68758 c -18.69131,-9.77702 -30.89734,-18.92232 -47.96937,-35.94076 -29.59901,-29.50612 -47.639,-63.38207 -56.13775,-105.41685 -3.66996,-18.15164 -3.33976,-57.84175 0.63397,-76.2025 13.30865,-61.493 51.29939,-111.14963 106.07824,-138.65185 58.87209,-29.55729 125.0671,-29.19553 183.49225,1.00279 19.92147,10.29685 34.74328,21.49109 51.52562,38.91499 27.5712,28.62521 44.85512,61.8886 52.80278,101.62043 3.92106,19.60213 4.15636,52.43767 0.51618,72.03118 -9.2722,49.90832 -36.7933,94.80264 -76.29966,124.46525 -12.70516,9.53945 -35.44723,22.86742 -39.01958,22.86742 -1.04368,0 -1.50558,-5.48447 -1.50558,-17.87698 v -17.87697 l 11.66669,-7.7296 c 22.24486,-14.73802 44.70913,-40.05795 56.64815,-63.8493 19.8016,-39.45946 23.1395,-86.22469 9.11558,-127.7127 -19.34755,-57.23724 -65.4745,-98.09433 -125.43052,-111.10046 -15.81265,-3.4302 -49.52082,-3.4302 -65.33347,0 -33.28414,7.22026 -61.55209,22.37839 -84.76527,45.45371 -24.26821,24.12408 -39.39367,51.99531 -46.68587,86.0266 -3.38431,15.79392 -3.44109,48.38748 -0.11148,63.99971 5.09012,23.86719 14.50248,45.93 27.23459,63.83861 13.08567,18.4059 34.66889,38.39156 52.66126,48.76336 l 6.33334,3.65089 v 17.87323 c 0,14.86669 -0.33095,17.87322 -1.96738,17.87322 -1.08205,0 -7.14928,-2.71054 -13.48272,-6.02342 z m 1.25867,-86.30949 c -12.80972,-13.21271 -17.34142,-19.68672 -25.17668,-35.96757 -9.61652,-19.98208 -11.77474,-29.99894 -11.85714,-55.03202 -0.0601,-18.25627 0.37329,-22.96787 3.00473,-32.66652 5.51255,-20.31746 16.33091,-40.28274 30.15275,-55.64686 14.53412,-16.15588 40.34252,-31.67282 62.73453,-37.71825 13.68167,-3.69379 39.38631,-4.97002 53.68139,-2.66526 42.80104,6.90071 78.02389,33.64461 96.96048,73.61985 19.69585,41.57809 15.8129,89.52501 -10.39924,128.41004 -6.396,9.48832 -21.93038,25.99988 -24.46113,25.99988 -1.33475,0 -1.78126,-2.62201 -1.78126,-10.45996 0,-8.93416 0.40863,-10.82977 2.80125,-12.99505 5.85101,-5.29507 18.25601,-25.81365 22.16227,-36.65771 5.87323,-16.30447 7.54858,-27.73098 6.66091,-45.42978 -1.52766,-30.45878 -12.60489,-54.32396 -35.24963,-75.94293 -12.87311,-12.28998 -25.03987,-19.70939 -41.10969,-25.0691 -59.91977,-19.98481 -123.01412,11.63431 -143.44979,71.88848 -3.79563,11.19136 -4.36147,14.76301 -4.85835,30.66653 -0.46894,15.00909 -0.0981,19.94979 2.23139,29.735 4.63681,19.47673 16.17806,40.97813 28.00892,52.18075 3.93835,3.7292 4.13572,4.41326 4.13572,14.33326 0,7.74989 -0.45153,10.41717 -1.7635,10.41717 -0.96992,0 -6.56249,-4.94998 -12.42793,-10.99995 z m 36.33349,-73.333 c -4.55588,-16.50258 -3.70605,-28.67882 3.00211,-43.01373 16.19646,-34.6108 60.56982,-44.3282 90.48469,-19.81539 16.26487,13.32777 24.2259,38.67426 18.85121,60.01893 -1.75794,6.98136 -4.30446,8.57808 -7.91788,4.9647 -2.14529,-2.14527 -2.33901,-3.28271 -1.2223,-7.17643 0.72987,-2.5449 1.3128,-8.83104 1.29539,-13.96919 -0.0915,-27.0246 -21.91829,-48.22397 -49.30178,-47.88469 -24.3516,0.30171 -43.66946,16.88863 -48.23005,41.41181 -1.2291,6.60905 -1.10322,9.74605 0.71393,17.79258 2.05563,9.10255 2.05479,9.93608 -0.012,12.22012 -3.65071,4.03398 -5.61562,2.86763 -7.66305,-4.54871 z"
         id="path1030" />
      <path
         style="fill:#53c3c5;stroke-width:1.33333"
         d="m -746.16236,1327.6667 c -24.8824,-25.7376 -73.61165,-86.3573 -157.28612,-195.6658 -28.03414,-36.6225 -31.73117,-41.8617 -35.12345,-49.7756 -8.34864,-19.4764 -2.30849,-44.3829 14.5481,-59.989 11.19884,-10.3681 19.59071,-13.4608 36.68925,-13.5211 12.18257,-0.043 14.08217,0.3078 22.0093,4.0646 4.77176,2.2614 11.97178,6.7934 16.00003,10.0712 46.33677,37.7043 78.95781,63.5699 83.31905,66.0644 5.75877,3.294 12.55862,3.9537 16.88498,1.6384 1.48744,-0.7961 3.8814,-4.1081 5.31991,-7.3601 2.56112,-5.7898 2.61347,-9.9779 2.51923,-201.55167 -0.0615,-124.92375 0.39249,-199.49459 1.25585,-206.30568 2.5053,-19.76441 14.2615,-36.23845 31.68851,-44.40528 6.87336,-3.22108 9.1939,-3.5945 22.3369,-3.5945 13.7434,0 15.23538,0.26937 23.7004,4.27902 15.68992,7.4319 27.12142,22.11819 30.28106,38.90277 0.83615,4.44171 1.35199,44.47369 1.35199,104.92083 0,59.96693 0.48722,98.04 1.2607,98.51803 0.69339,0.42853 3.62857,-2.70765 6.52263,-6.9693 18.67819,-27.50469 50.77453,-34.85365 77.31195,-17.70181 18.4105,11.89921 25.50397,29.03443 25.54848,61.71584 0.0135,9.92359 0.55449,16.99992 1.29964,16.99992 0.70207,0 2.95207,-2.20144 5.00001,-4.89208 12.64461,-16.61293 23.51541,-24.13904 39.42582,-27.29549 16.78946,-3.33083 36.61383,3.69187 49.3964,17.49846 11.07409,11.96126 13.2418,18.74984 13.84422,43.35565 0.26932,10.99995 0.77882,21.3499 1.13222,22.99989 0.93899,4.3841 3.62445,3.67011 6.53692,-1.738 4.22802,-7.85089 14.78317,-17.46362 24.34385,-22.1703 8.53382,-4.20116 9.73274,-4.4249 23.71108,-4.4249 13.90054,0 15.21188,0.24078 23.4807,4.31149 10.69049,5.26287 21.24631,15.99019 26.25822,26.68485 3.57107,7.62012 3.59902,7.91367 4.28362,45.00336 0.96031,52.0258 -0.77567,127.3682 -3.31439,143.8475 -7.05195,45.7754 -37.51578,133.7281 -55.81633,161.1485 l -4.22517,6.3307 h -185.43056 -185.43055 l -10.63445,-10.9999 z m -34.51323,-554.03955 c -34.6977,-18.17888 -64.30873,-47.54616 -83.64609,-82.95753 -16.19593,-29.65866 -24.87066,-67.8259 -23.30737,-102.54826 1.36264,-30.26589 7.57402,-53.82433 21.651,-82.11757 19.18792,-38.56571 50.20771,-69.36213 89.31037,-88.6673 18.40276,-9.08552 30.27675,-13.24961 50.00011,-17.53452 20.02581,-4.35062 58.42042,-4.40539 78.08636,-0.11139 38.85301,8.48342 71.38562,25.30114 98.14303,50.73498 36.02594,34.24392 57.57676,78.26466 62.45713,127.5779 6.26329,63.28707 -20.93053,130.3279 -69.15503,170.48765 -15.05887,12.54053 -43.20221,30.17811 -48.15358,30.17811 -0.87919,0 -1.37766,-6.44035 -1.37766,-17.79978 v -17.79978 l 11.46487,-7.62966 c 59.01578,-39.27396 87.09876,-111.78785 69.71542,-180.0143 -15.07711,-59.17501 -61.19007,-105.39914 -120.72866,-121.01972 -14.60954,-3.83296 -17.52275,-4.15107 -39.11846,-4.27161 -15.03207,-0.0839 -26.65391,0.52751 -32.66674,1.71856 -34.48371,6.83069 -67.0167,24.68849 -90.79951,49.84109 -19.44936,20.56957 -33.47068,45.95953 -40.82493,73.92621 -3.82999,14.56465 -4.14125,17.42679 -4.24666,39.04982 -0.12109,24.8381 1.45644,35.85057 7.79199,54.39451 12.21201,35.74411 36.56946,67.27843 67.15201,86.93818 l 13.48172,8.66663 0.056,17.66659 c 0.0421,13.29586 -0.35636,17.65617 -1.61069,17.62449 -0.91667,-0.0232 -7.07025,-2.87313 -13.67461,-6.3333 z m 3.25763,-83.7985 c -60.54441,-58.45033 -50.30995,-158.46786 20.77751,-203.05072 50.14203,-31.44682 115.68453,-25.19764 157.73055,15.0389 20.08536,19.22097 32.25545,40.77379 38.50251,68.18667 3.46988,15.22635 2.85936,42.29983 -1.31153,58.1592 -4.35019,16.54111 -12.25026,32.9804 -22.18482,46.16446 -8.01996,10.64321 -18.91237,21.67576 -21.40045,21.67576 -0.80449,0 -1.36313,-4.00067 -1.36313,-9.76204 v -9.76205 l 7.42086,-9.23787 c 9.56719,-11.9097 18.40768,-30.07593 22.01469,-45.2377 3.80686,-16.00183 3.14336,-42.98468 -1.40978,-57.33307 -12.33656,-38.87635 -42.0943,-67.6839 -80.76452,-78.18562 -14.92658,-4.05364 -40.81703,-4.06544 -55.92814,-0.0255 -40.11933,10.72587 -71.32288,41.95686 -82.13886,82.2111 -4.00207,14.89465 -4.02375,39.61781 -0.0479,54.66642 3.99839,15.13404 14.53736,35.5213 24.12371,46.66645 l 8.02791,9.33329 0.0175,9.66663 c 0.0107,6.13725 -0.51662,9.66662 -1.44545,9.66662 -0.80464,0 -5.58393,-3.97842 -10.62066,-8.84093 z m 34.2257,-75.49202 c -4.55588,-16.50258 -3.70605,-28.67882 3.00211,-43.01373 16.19646,-34.6108 60.56982,-44.3282 90.48469,-19.81539 16.26487,13.32777 24.2259,38.67426 18.85121,60.01893 -1.75794,6.98136 -4.30446,8.57808 -7.91788,4.9647 -2.14529,-2.14527 -2.33901,-3.28271 -1.2223,-7.17643 0.72987,-2.5449 1.3128,-8.83104 1.29539,-13.96919 -0.0915,-27.0246 -21.91829,-48.22397 -49.30178,-47.88469 -24.3516,0.30171 -43.66946,16.88863 -48.23005,41.41181 -1.2291,6.60905 -1.10322,9.74605 0.71393,17.79258 2.05563,9.10255 2.05479,9.93608 -0.012,12.22012 -3.65071,4.03398 -5.61562,2.86763 -7.66305,-4.54871 z"
         id="path1028" />
      <path
         style="fill:#79a1bd;stroke-width:1.33333"
         d="m -746.16236,1327.6667 c -24.8824,-25.7376 -73.61165,-86.3573 -157.28612,-195.6658 -28.03414,-36.6225 -31.73117,-41.8617 -35.12345,-49.7756 -8.34864,-19.4764 -2.30849,-44.3829 14.5481,-59.989 11.19884,-10.3681 19.59071,-13.4608 36.68925,-13.5211 12.18257,-0.043 14.08217,0.3078 22.0093,4.0646 4.77176,2.2614 11.97178,6.7934 16.00003,10.0712 46.33677,37.7043 78.95781,63.5699 83.31905,66.0644 5.75877,3.294 12.55862,3.9537 16.88498,1.6384 1.48744,-0.7961 3.8814,-4.1081 5.31991,-7.3601 2.56112,-5.7898 2.61347,-9.9779 2.51923,-201.55167 -0.0615,-124.92375 0.39249,-199.49459 1.25585,-206.30568 2.5053,-19.76441 14.2615,-36.23845 31.68851,-44.40528 6.87336,-3.22108 9.1939,-3.5945 22.3369,-3.5945 13.7434,0 15.23538,0.26937 23.7004,4.27902 15.68992,7.4319 27.12142,22.11819 30.28106,38.90277 0.83615,4.44171 1.35199,44.47369 1.35199,104.92083 0,59.96693 0.48722,98.04 1.2607,98.51803 0.69339,0.42853 3.62857,-2.70765 6.52263,-6.9693 18.67819,-27.50469 50.77453,-34.85365 77.31195,-17.70181 18.4105,11.89921 25.50397,29.03443 25.54848,61.71584 0.0135,9.92359 0.55449,16.99992 1.29964,16.99992 0.70207,0 2.95207,-2.20144 5.00001,-4.89208 12.64461,-16.61293 23.51541,-24.13904 39.42582,-27.29549 16.78946,-3.33083 36.61383,3.69187 49.3964,17.49846 11.07409,11.96126 13.2418,18.74984 13.84422,43.35565 0.26932,10.99995 0.77882,21.3499 1.13222,22.99989 0.93899,4.3841 3.62445,3.67011 6.53692,-1.738 4.22802,-7.85089 14.78317,-17.46362 24.34385,-22.1703 8.53382,-4.20116 9.73274,-4.4249 23.71108,-4.4249 13.90054,0 15.21188,0.24078 23.4807,4.31149 10.69049,5.26287 21.24631,15.99019 26.25822,26.68485 3.57107,7.62012 3.59902,7.91367 4.28362,45.00336 0.96031,52.0258 -0.77567,127.3682 -3.31439,143.8475 -7.05195,45.7754 -37.51578,133.7281 -55.81633,161.1485 l -4.22517,6.3307 h -185.43056 -185.43055 l -10.63445,-10.9999 z m -34.51323,-554.03955 c -34.6977,-18.17888 -64.30873,-47.54616 -83.64609,-82.95753 -16.19593,-29.65866 -24.87066,-67.8259 -23.30737,-102.54826 1.36264,-30.26589 7.57402,-53.82433 21.651,-82.11757 19.18792,-38.56571 50.20771,-69.36213 89.31037,-88.6673 18.40276,-9.08552 30.27675,-13.24961 50.00011,-17.53452 20.02581,-4.35062 58.42042,-4.40539 78.08636,-0.11139 38.85301,8.48342 71.38562,25.30114 98.14303,50.73498 36.02594,34.24392 57.57676,78.26466 62.45713,127.5779 6.26329,63.28707 -20.93053,130.3279 -69.15503,170.48765 -15.05887,12.54053 -43.20221,30.17811 -48.15358,30.17811 -0.87919,0 -1.37766,-6.44035 -1.37766,-17.79978 v -17.79978 l 11.46487,-7.62966 c 59.01578,-39.27396 87.09876,-111.78785 69.71542,-180.0143 -15.07711,-59.17501 -61.19007,-105.39914 -120.72866,-121.01972 -14.60954,-3.83296 -17.52275,-4.15107 -39.11846,-4.27161 -15.03207,-0.0839 -26.65391,0.52751 -32.66674,1.71856 -34.48371,6.83069 -67.0167,24.68849 -90.79951,49.84109 -19.44936,20.56957 -33.47068,45.95953 -40.82493,73.92621 -3.82999,14.56465 -4.14125,17.42679 -4.24666,39.04982 -0.12109,24.8381 1.45644,35.85057 7.79199,54.39451 12.21201,35.74411 36.56946,67.27843 67.15201,86.93818 l 13.48172,8.66663 0.056,17.66659 c 0.0421,13.29586 -0.35636,17.65617 -1.61069,17.62449 -0.91667,-0.0232 -7.07025,-2.87313 -13.67461,-6.3333 z m 3.25763,-83.7985 c -60.54441,-58.45033 -50.30995,-158.46786 20.77751,-203.05072 50.14203,-31.44682 115.68453,-25.19764 157.73055,15.0389 20.08536,19.22097 32.25545,40.77379 38.50251,68.18667 3.46988,15.22635 2.85936,42.29983 -1.31153,58.1592 -4.35019,16.54111 -12.25026,32.9804 -22.18482,46.16446 -8.01996,10.64321 -18.91237,21.67576 -21.40045,21.67576 -0.80449,0 -1.36313,-4.00067 -1.36313,-9.76204 v -9.76205 l 7.42086,-9.23787 c 9.56719,-11.9097 18.40768,-30.07593 22.01469,-45.2377 3.80686,-16.00183 3.14336,-42.98468 -1.40978,-57.33307 -12.33656,-38.87635 -42.0943,-67.6839 -80.76452,-78.18562 -14.92658,-4.05364 -40.81703,-4.06544 -55.92814,-0.0255 -40.11933,10.72587 -71.32288,41.95686 -82.13886,82.2111 -4.00207,14.89465 -4.02375,39.61781 -0.0479,54.66642 3.99839,15.13404 14.53736,35.5213 24.12371,46.66645 l 8.02791,9.33329 0.0175,9.66663 c 0.0107,6.13725 -0.51662,9.66662 -1.44545,9.66662 -0.80464,0 -5.58393,-3.97842 -10.62066,-8.84093 z"
         id="path1026" />
      <path
         style="fill:#6b97b7;stroke-width:1.33333"
         d="m -739.81051,1333.8537 c -15.34672,-13.1361 -66.65688,-75.9888 -143.4061,-175.6659 -55.93917,-72.6504 -56.92033,-74.136 -58.77658,-88.9928 -1.97342,-15.7946 4.94804,-34.7775 16.68246,-45.7536 17.53356,-16.4005 42.35232,-19.8131 63.93608,-8.7914 4.0385,2.0622 29.61684,22.2973 76.42765,60.462 15.55255,12.6799 22.91965,16.8646 29.71362,16.8782 6.23421,0.012 10.28272,-3.3675 12.90656,-10.7755 1.21979,-3.4439 1.77809,-54.1946 2.3015,-209.21257 l 0.69105,-204.66574 3.21141,-7.99997 c 4.45066,-11.08709 17.74664,-24.36815 28.78866,-28.75638 6.62595,-2.63322 10.40465,-3.18279 22.00005,-3.19962 12.42583,-0.018 14.86248,0.38252 21.67023,3.56241 16.2161,7.5745 28.80268,24.00523 31.60139,41.253 0.8536,5.26046 1.37884,45.29936 1.3851,105.5845 0.008,76.55442 0.35924,96.99428 1.6596,96.56082 0.90724,-0.30241 3.82905,-3.69314 6.49288,-7.53495 7.1212,-10.27024 12.61953,-15.46875 21.02624,-19.87969 25.43708,-13.34662 55.16744,-5.99231 70.9201,17.5433 7.71267,11.5233 9.24481,18.20744 9.24481,40.33178 0,26.72695 1.1468,28.39236 10.45862,15.18832 7.00104,-9.92741 16.50146,-17.56962 26.53867,-21.34791 11.11125,-4.18258 31.03804,-3.39933 41.9603,1.64933 14.85987,6.86877 26.85971,21.99585 30.23104,38.10945 0.81304,3.88608 1.47827,15.06256 1.47827,24.83664 0,21.8603 1.39821,24.38551 7.89578,14.26 5.90047,-9.19503 16.16642,-18.38946 25.14473,-22.52026 6.67617,-3.0716 9.37035,-3.51302 21.62627,-3.5433 11.56733,-0.0285 15.34023,0.50077 21.71282,3.04636 10.78098,4.30656 22.3921,15.36762 27.93035,26.60714 l 4.35695,8.84219 0.67014,37.36915 c 0.82281,45.8814 -0.65072,122.6999 -2.64778,138.0354 -5.79367,44.4901 -36.47943,135.729 -55.66491,165.5102 l -5.02425,7.7991 -184.7604,0.012 -184.76039,0.012 -5.62292,-4.813 z m -41.3915,-560.55569 c -18.13368,-9.62551 -32.25584,-20.13236 -47.44366,-35.29789 -54.70156,-54.62128 -73.19798,-134.81775 -47.87399,-207.5712 10.29254,-29.56952 24.45744,-51.86569 47.76587,-75.18559 24.2794,-24.29133 49.13357,-39.53504 81.12143,-49.75386 21.29896,-6.80416 34.85186,-8.77689 60.2982,-8.77689 25.96069,0 39.27697,2.00461 61.9013,9.31852 30.35078,9.81169 56.02201,25.71119 79.47772,49.22458 53.59016,53.72198 71.94529,130.9336 48.52913,204.13984 -4.55963,14.25488 -15.257,35.98787 -24.57446,49.92601 -8.79199,13.15207 -33.80057,38.85553 -47.17285,48.48358 -11.47661,8.26318 -33.10401,20.85608 -35.82733,20.86107 -1.25049,0.003 -1.66667,-4.45442 -1.66667,-17.84795 v -17.851 l 8.33335,-5.24912 c 51.11889,-32.19952 81.17556,-90.01605 77.83118,-149.71469 -4.40919,-78.70554 -61.64485,-143.16858 -139.11137,-156.67752 -14.65459,-2.55553 -40.84062,-2.54589 -55.55717,0.0204 -62.18246,10.84364 -113.12428,55.30807 -132.06802,115.2752 -8.54722,27.05654 -9.67628,61.63144 -2.90278,88.89054 10.48793,42.20729 34.88416,76.61787 71.80778,101.28393 l 13.00003,8.6844 v 17.26107 c 0,12.93362 -0.41784,17.25465 -1.66667,17.23548 -0.91667,-0.0141 -7.30712,-3.0196 -14.20102,-6.67894 z m 6.13498,-81.40069 c -29.45667,-26.25412 -46.03454,-71.08263 -40.93203,-110.68499 4.09311,-31.76803 17.33135,-57.74081 40.45949,-79.37955 40.29207,-37.69735 99.5914,-45.60006 148.52986,-19.79431 34.74937,18.3237 58.3837,50.23484 66.59632,89.9185 3.19155,15.42173 1.83604,45.08035 -2.76191,60.43067 -3.73053,12.4544 -10.55984,27.0879 -17.24359,36.94874 -5.37966,7.93684 -23.65696,26.77745 -25.10729,25.8811 -0.62763,-0.3879 -1.14114,-4.72409 -1.14114,-9.63599 0,-8.64191 0.19659,-9.16757 6.07888,-16.25456 25.57947,-30.81822 33.39382,-71.9596 20.69443,-108.95314 -21.49726,-62.62188 -90.97234,-94.16458 -151.44024,-68.75606 -48.5285,20.39159 -77.54376,73.63432 -67.8868,124.5716 3.994,21.06695 12.86628,39.23794 27.36336,56.04176 6.36876,7.38215 6.52337,7.7674 6.52337,16.25458 0,4.78125 -0.50581,9.00581 -1.12403,9.38789 -0.61821,0.38207 -4.49213,-2.30723 -8.60868,-5.97624 z"
         id="path1024" />
      <path
         style="fill:#5386ab;stroke-width:1.33333"
         d="m -743.50005,1329.6861 c -23.96872,-23.9685 -70.57762,-81.9467 -169.63869,-211.0184 -10.61542,-13.8314 -21.10315,-29.0592 -23.87558,-34.6665 -4.54795,-9.1984 -4.94131,-10.9086 -4.90722,-21.3346 0.0345,-10.5449 0.42579,-12.1378 5.61613,-22.8609 3.96139,-8.1842 7.37707,-13.109 11.78005,-16.9846 17.47337,-15.3806 41.69048,-18.6998 61.45418,-8.4231 3.81151,1.9819 24.70196,18.0034 46.42323,35.6033 43.67756,35.3903 52.13342,41.5325 58.93298,42.8081 5.49078,1.0301 10.24651,-1.9289 14.3807,-8.9476 2.62752,-4.4608 2.67646,-7.5414 3.33334,-209.85968 l 0.66666,-205.3324 3.09685,-7.66942 c 8.82655,-21.85917 27.11581,-33.72934 51.76914,-33.59945 11.32641,0.0597 12.91683,0.41892 22.22887,5.02115 11.64247,5.75399 20.74549,14.90645 26.10595,26.24776 l 3.46609,7.3333 0.69859,103.99953 c 0.38421,57.19974 0.83421,104.14953 1,104.33286 1.53055,1.6926 4.63769,-1.03837 9.36914,-8.23484 24.17512,-36.77013 76.50477,-32.96243 95.33699,6.93707 4.12725,8.74432 4.24787,9.53461 4.91331,32.19004 0.47227,16.07818 1.16445,23.38531 2.24926,23.74447 0.86188,0.28536 4.12452,-2.96622 7.25028,-7.22572 8.07118,-10.9986 13.92677,-16.13175 23.8494,-20.90698 8.01486,-3.85712 9.71965,-4.17081 22.66672,-4.17081 12.88804,0 14.6884,0.32728 22.66671,4.12045 10.41628,4.95227 16.04182,9.52182 21.51434,17.4758 7.6208,11.07638 9.48567,18.80999 10.35994,42.96266 0.536,14.80776 1.29338,22.05823 2.34038,22.40476 0.85135,0.28177 3.73134,-2.77712 6.39996,-6.79754 13.17436,-19.84787 34.72799,-29.26584 56.96479,-24.89105 19.78655,3.89273 33.73912,16.05694 41.15636,35.88115 2.61653,6.99327 2.72661,10.05747 2.73238,76.06479 0.008,92.9348 -1.89513,111.1549 -16.86451,161.4442 -13.44555,45.17 -31.81208,90.6183 -43.50992,107.6661 l -3.88833,5.6667 h -184.52894 -184.52892 z m -35.93382,-555.84693 c -70.50347,-36.27826 -113.17803,-112.73921 -107.22136,-192.11091 5.30392,-70.67392 46.47558,-132.16148 109.78446,-163.95689 25.87747,-12.99636 61.95492,-21.76708 89.53661,-21.76708 28.46243,0 64.65204,9.02641 91.51799,22.82641 54.39572,27.94099 91.01151,76.85904 104.67164,139.83952 1.92632,8.88135 2.46022,17.10252 2.4678,37.99982 0.008,23.07047 -0.40823,28.53301 -3.08925,40.50715 -9.38067,41.89657 -28.20858,75.40085 -58.65231,104.37181 -12.42056,11.81969 -30.76639,24.98095 -44.45019,31.88847 -12.24132,6.17936 -11.93646,6.52398 -11.50534,-13.0069 l 0.37317,-16.90533 11.33336,-7.74564 c 69.3464,-47.39392 93.80313,-134.23026 59.19395,-210.17462 -14.47999,-31.77405 -45.07898,-63.19293 -77.19399,-79.2624 -40.08883,-20.05936 -88.522,-23.09582 -130.31184,-8.16976 -87.79098,31.35629 -133.28039,126.69137 -102.34785,214.49697 13.18801,37.43568 37.66962,66.44788 76.32603,90.45096 l 3.66667,2.27676 v 16.55717 c 0,9.10644 -0.51301,16.87422 -1.14004,17.26173 -0.62702,0.38752 -6.4588,-2.03224 -12.95951,-5.37724 z m 0.67976,-87.16954 c -24.38269,-24.19801 -37.27186,-55.4526 -37.22947,-90.27671 0.0613,-50.33105 27.80393,-94.57298 72.64931,-115.85569 18.74365,-8.89536 29.08651,-11.37295 50.79738,-12.16832 14.57851,-0.53407 21.30692,-0.18011 29.97912,1.57709 48.72278,9.87243 86.72217,45.97609 100.19416,95.19563 4.1927,15.3179 4.13261,47.10788 -0.1188,62.8616 -3.65867,13.5573 -11.12052,29.94883 -18.74347,41.17406 -5.97752,8.8022 -20.98849,25.49231 -22.92765,25.49231 -0.64925,0 -1.18045,-4.407 -1.18045,-9.7933 0,-8.25487 0.43977,-10.19131 2.79948,-12.3268 4.48524,-4.05906 16.64292,-23.17171 20.28085,-31.8828 6.54828,-15.67997 8.11426,-24.10683 8.17596,-43.99666 0.0599,-19.28651 -1.0468,-25.79511 -7.16071,-42.11473 -9.08471,-24.24949 -30.49894,-47.6855 -54.68158,-59.84422 -67.64574,-34.01138 -148.21057,5.16061 -163.593,79.54171 -3.39797,16.43067 -2.00659,40.135 3.31151,56.41709 4.90309,15.01149 13.42993,30.0869 22.84283,40.38605 l 6.81106,7.45234 -0.39337,9.74732 -0.39337,9.74732 z"
         id="path1022" />
      <path
         style="fill:#4579a2;stroke-width:1.33333"
         d="m -747.52687,1324.8877 c -16.09469,-16.8764 -45.12195,-51.9456 -84.61877,-102.232 -59.83692,-76.183 -97.89177,-126.6457 -103.77903,-137.6165 -5.57561,-10.39 -5.92784,-11.6719 -6.00002,-21.8361 -0.0422,-5.9389 0.60916,-12.2389 1.4474,-13.9999 0.83824,-1.761 3.19194,-6.6629 5.23045,-10.893 4.6003,-9.5462 15.32661,-19.9113 25.57535,-24.7142 6.88723,-3.2276 9.16741,-3.5922 22.33691,-3.572 12.98536,0.02 15.50737,0.419 22.00005,3.4811 4.31436,2.0348 24.75459,17.5199 49.65087,37.6146 23.27464,18.7858 44.68178,35.7205 47.57143,37.6328 10.54885,6.9808 19.98588,5.5647 25.08354,-3.7639 2.22191,-4.0661 2.40038,-16.4244 3.02776,-209.65316 0.72576,-223.53358 0.13622,-206.71156 7.76131,-221.46198 3.92034,-7.58372 14.45273,-17.22769 23.14439,-21.19211 27.86133,-12.70805 59.27753,-1.55157 72.14881,25.6214 l 4.27905,9.03364 0.37324,102.57767 c 0.36572,100.5119 0.66849,107.66171 4.45999,105.31844 0.65877,-0.40713 3.19665,-3.85051 5.63974,-7.65195 5.93998,-9.24258 15.40059,-17.70599 24.6269,-22.03109 6.68771,-3.13505 9.19351,-3.5472 21.56691,-3.5472 12.97842,0 14.65589,0.31068 22.98772,4.25749 15.83163,7.49948 27.12386,22.08691 30.3772,39.24159 0.71603,3.77556 1.30187,15.18274 1.30187,25.34926 0,20.77459 0.90436,22.39154 7.60984,13.60609 2.04794,-2.68319 6.01945,-7.4501 8.82559,-10.59313 25.18767,-28.21155 71.02261,-21.65874 87.87452,12.56302 4.28628,8.70431 4.36776,9.21596 5.02361,31.54477 0.87735,29.86941 2.23475,31.91095 11.67279,17.5558 8.60914,-13.09442 20.45676,-20.74341 36.44121,-23.52697 16.77389,-2.92103 34.87943,3.11649 46.65179,15.5566 7.1618,7.56804 9.05545,10.5494 13.05245,20.54974 2.94318,7.3637 2.97286,8.13847 2.96234,77.33298 -0.007,42.7848 -0.54777,72.6804 -1.39549,77.0767 -0.76167,3.9501 -1.38486,9.9943 -1.38486,13.4317 0,34.1568 -35.80881,143.4807 -57.77383,176.3829 l -4.2263,6.3307 h -184.19298 -184.19297 z m -35.80749,-553.55814 c -17.90549,-9.89112 -29.50324,-18.68428 -44.73966,-33.9206 -24.99605,-24.99587 -41.49364,-52.7702 -51.16976,-86.14626 -8.19382,-28.26311 -9.67136,-68.90638 -3.48728,-95.9258 13.89746,-60.72068 50.732,-108.83257 104.38671,-136.34597 15.53217,-7.96469 36.36169,-15.1236 53.01011,-18.21908 6.23335,-1.15898 13.89198,-2.70581 17.01917,-3.4374 7.34777,-1.71897 34.61406,-1.71897 41.96183,0 3.12719,0.73159 10.78582,2.269 17.01917,3.41648 24.49714,4.50961 51.65328,15.73723 74.42422,30.77046 15.72383,10.38078 41.24847,36.05191 52.11236,52.41145 48.22308,72.61734 46.03366,163.16 -5.63143,232.88712 -9.26785,12.50787 -28.76033,31.58045 -41.67917,40.78134 -12.85967,9.15876 -33.31483,20.24901 -35.19948,19.08425 -0.79591,-0.4919 -1.35975,-7.16593 -1.35975,-16.09495 0,-17.51073 -1.35257,-15.22731 16.27241,-27.47119 20.90262,-14.52081 41.79306,-38.70174 53.37577,-61.78304 19.97917,-39.81333 23.0521,-88.86864 8.16291,-130.31097 -21.59726,-60.11352 -71.92547,-101.48072 -135.14454,-111.08184 -78.28273,-11.88885 -157.4342,36.84157 -182.61705,112.43005 -6.49923,19.50802 -8.60002,32.39807 -8.63179,52.96311 -0.0325,21.02041 1.72044,32.93009 7.55544,51.3331 12.20953,38.50765 38.8001,72.68093 72.35983,92.99433 4.40001,2.66328 8.45112,5.47898 9.00247,6.25711 0.55136,0.77811 0.85136,8.30748 0.66667,16.73192 -0.2715,12.38417 -0.71876,15.38655 -2.33579,15.67949 -1.10001,0.19928 -8.00002,-2.95212 -15.33337,-7.00311 z m 5.23713,-84.8777 c -27.37846,-28.40224 -39.54339,-62.66627 -36.36629,-102.43016 1.26062,-15.77765 5.25775,-29.92789 12.68767,-44.91566 26.79991,-54.06128 88.11433,-81.56401 147.7751,-66.28488 10.72826,2.74752 31.04821,12.45971 41.13545,19.66125 25.83656,18.4454 44.96312,48.57871 50.91849,80.22057 2.77999,14.77053 2.05721,42.14525 -1.46011,55.30025 -5.69758,21.30928 -16.40594,40.40942 -31.87424,56.85295 l -8.60427,9.14675 -0.0576,-8.99324 c -0.0567,-8.85232 0.0481,-9.12394 6.69344,-17.33325 18.57317,-22.94467 28.20198,-57.57586 23.99944,-86.31699 -7.42637,-50.78883 -45.12619,-89.67473 -95.70221,-98.71311 -14.48588,-2.58876 -37.04163,-1.10653 -51.04853,3.3546 -23.12816,7.36621 -42.05666,19.91867 -56.57128,37.51529 -35.50836,43.04815 -34.44482,106.88469 2.46999,148.2556 7.61735,8.53686 8.06346,9.8944 6.35768,19.34668 l -0.92316,5.11553 z"
         id="path1020" />
      <path
         style="fill:#3b78a1;stroke-width:1.33333"
         d="m -745.94184,1326.3497 c -21.34834,-22.3184 -65.09115,-76.1563 -124.86527,-153.6823 -70.04887,-90.852 -70.52758,-91.5959 -70.52758,-109.5872 0,-6.1133 0.51896,-12.1569 1.15326,-13.4303 0.63429,-1.2734 2.74709,-5.8046 4.69511,-10.0694 4.89751,-10.7221 14.03462,-20.0659 24.69953,-25.2583 8.17068,-3.978 9.76526,-4.2789 22.78554,-4.299 12.96718,-0.02 14.63942,0.2858 22.66672,4.1466 7.36922,3.5443 60.97102,45.1719 85.77027,66.6099 8.7453,7.5599 18.2518,12.5282 23.99919,12.5422 6.42693,0.016 12.03964,-5.1834 14.18117,-13.1364 1.08074,-4.0136 1.47595,-60.093 1.41405,-200.64918 -0.056,-127.23642 0.39244,-198.51954 1.28961,-204.97266 2.65002,-19.06099 13.75286,-34.52324 30.38861,-42.32037 6.82383,-3.1983 9.1666,-3.57339 22.31885,-3.57339 13.90052,0 15.17306,0.23548 23.54496,4.35691 11.21041,5.51884 22.28807,17.12976 26.64739,27.93017 l 3.11306,7.71274 0.66667,103.22218 c 0.5135,79.50893 1.04009,103.34656 2.29216,103.76358 0.89403,0.29777 3.59403,-2.32519 6.00001,-5.82881 8.23538,-11.99243 14.46509,-17.7236 24.832,-22.8448 9.62281,-4.75362 10.68965,-4.97961 23.50747,-4.97961 12.49354,0 14.04796,0.30565 22.3551,4.39581 16.33656,8.04359 27.42339,23.03849 30.37926,41.08791 0.707,4.31715 1.28892,15.49934 1.29318,24.8493 0.007,16.00083 0.16152,16.99992 2.62471,16.99992 1.70198,0 4.49049,-2.75884 7.97535,-7.89049 16.55919,-24.38432 45.78547,-31.96964 71.13044,-18.46101 9.9802,5.31937 19.90957,16.19728 23.75344,26.02262 2.51961,6.44034 3.14297,11.38296 3.90913,30.99541 0.50133,12.83327 0.99477,23.41904 1.09653,23.5239 2.2555,2.32458 4.74073,0.81668 8.63109,-5.23688 5.96512,-9.28195 15.41389,-17.74165 24.6538,-22.07313 6.75921,-3.16858 9.13572,-3.54719 22.26521,-3.54719 13.88085,0 15.18635,0.24035 23.47338,4.32168 10.71778,5.27847 20.10356,14.92756 24.69464,25.38742 1.84051,4.19324 3.92381,8.8318 4.62954,10.30793 1.74118,3.64182 0.68899,139.13584 -1.24665,160.53714 -0.82353,9.1053 -2.45684,21.4053 -3.62956,27.3333 -9.41167,47.5744 -38.17964,127.9399 -54.33002,151.7749 l -4.28965,6.3307 H -550.0802 -734.16025 Z m -33.25268,-553.10657 c -53.94489,-27.77699 -91.98375,-79.03968 -104.3466,-140.62162 -3.62283,-18.04607 -3.31555,-57.98505 0.58187,-75.6293 9.18192,-41.56801 28.39496,-76.21389 57.88902,-104.38824 29.54183,-28.21999 66.46058,-46.48024 108.03388,-53.43426 17.37572,-2.90645 38.42588,-3.80006 47.03557,-1.99672 3.66667,0.768 12.17517,2.32333 18.90777,3.45629 36.92886,6.21437 74.8833,25.94421 102.51683,53.29126 35.25801,34.8925 54.77524,76.23958 59.42579,125.89305 4.37117,46.67038 -10.02685,97.59675 -38.18208,135.05165 -16.82198,22.37826 -45.52043,46.78581 -68.86935,58.57223 -4.24752,2.14413 -8.03989,3.89842 -8.42747,3.89842 -0.38758,0 -0.68632,-7.64997 -0.66385,-16.99992 l 0.0408,-16.99993 12.09516,-7.99996 c 22.7793,-15.06667 42.18597,-36.93171 55.02882,-61.99972 13.27556,-25.91259 18.68268,-48.32551 18.65661,-77.33298 -0.0746,-83.05684 -59.78658,-152.48636 -142.8799,-166.13233 -15.39396,-2.52806 -43.65224,-1.86172 -58.31591,1.37512 -52.03491,11.48611 -94.44628,44.19364 -117.68394,90.75755 -22.60344,45.29302 -23.22816,97.95628 -1.72461,145.38104 11.57277,25.52302 35.21725,52.89573 59.74176,69.16177 l 13.66669,9.06452 v 16.52908 c 0,9.091 -0.45,16.52782 -1,16.52626 -0.55,-10e-4 -5.73709,-2.44202 -11.52686,-5.42326 z"
         id="path1018" />
      <path
         style="fill:#2b6c99;stroke-width:1.33333"
         d="m -746.24301,1325.6186 c -20.92294,-22.136 -56.7415,-65.9473 -109.24113,-133.6179 -51.94101,-66.9506 -77.27811,-100.9476 -80.51721,-108.0371 -1.83334,-4.0127 -3.78334,-7.4957 -4.33334,-7.7402 -1.42524,-0.6334 -1.24488,-25.5554 0.18494,-25.5554 0.65173,0 1.56545,-2.0282 2.03049,-4.5071 1.08843,-5.8018 9.68186,-19.095 15.55292,-24.0588 13.41943,-11.3459 33.31439,-15.4482 50.06683,-10.3236 11.41071,3.4905 13.46742,4.9457 57.78957,40.8895 45.18706,36.6451 49.19638,39.4902 56.86901,40.355 7.89539,0.8899 11.7609,-1.3322 15.49334,-8.9067 l 3.01332,-6.1151 0.66667,-205.33241 c 0.65514,-201.77976 0.71292,-205.44027 3.34021,-211.56668 9.57995,-22.33899 28.99638,-34.30675 53.15186,-32.76137 22.37869,1.4317 38.32313,13.5151 47.1153,35.70602 2.16323,5.45986 2.41684,14.51288 3.04305,108.62248 0.77854,117.00337 -0.0984,110.1757 11.94795,93.02242 13.30027,-18.93879 34.87885,-27.79273 55.91579,-22.94288 15.6833,3.61562 30.42648,15.61733 37.15876,30.24914 3.2641,7.09413 3.58451,9.42504 4.26183,31.00406 0.40281,12.83328 1.21879,24.08485 1.8133,25.00349 1.75631,2.7139 5.52175,-0.20475 11.78685,-9.13622 6.51955,-9.29418 17.01952,-17.39644 26.7201,-20.61843 10.17153,-3.37842 30.06286,-2.23369 39.74563,2.28732 9.57494,4.47066 18.54096,12.56166 23.0011,20.75637 5.8197,10.69262 7.66563,20.34295 7.66563,40.07499 0,23.53972 2.85478,28.87407 9.30788,17.39242 21.31669,-37.9277 76.94064,-36.57116 95.34166,2.32516 1.84289,3.89549 3.35069,8.01987 3.35069,9.16526 0,1.14541 0.6,2.08257 1.33334,2.08257 1.6564,0 1.86275,138.18149 0.20788,139.20419 -0.619,0.3826 -1.50857,8.668 -1.97681,18.412 -0.50034,10.4122 -2.23187,24.4136 -4.19983,33.9608 -9.44017,45.7967 -33.67861,113.7969 -51.12216,143.4215 l -6.08444,10.3333 -184.07945,-0.048 -184.07944,-0.048 z m -33.20383,-552.78198 c -47.14317,-25.31422 -79.88277,-63.95363 -96.60801,-114.01715 -7.65118,-22.90222 -9.84158,-36.90548 -9.82576,-62.81609 0.0209,-34.18946 6.04294,-59.69589 21.27555,-90.11243 28.18998,-56.28987 87.4309,-98.79617 147.72523,-105.99519 6.71677,-0.80197 13.25416,-2.00563 14.52755,-2.6748 3.15086,-1.65579 28.65131,-1.55558 29.68482,0.11665 0.45323,0.73333 2.81005,1.33333 5.23739,1.33333 14.78288,0 45.83351,8.67753 66.71826,18.64534 27.54794,13.148 56.92856,37.74763 74.46029,62.34366 15.36995,21.56317 28.18453,50.69779 33.59568,76.38163 6.79306,32.24288 4.45775,71.27088 -6.17821,103.25137 -16.84557,50.65173 -56.65319,95.66373 -102.83326,116.27749 l -3.66667,1.63673 V 760.67818 744.1492 l 12.33336,-8.40246 c 23.01886,-15.68224 44.70317,-40.40067 56.97667,-64.94891 6.58022,-13.16114 13.00041,-34.33806 15.46522,-51.01185 10.34088,-69.95346 -26.89342,-141.14546 -90.90578,-173.8119 -38.48303,-19.63844 -84.71992,-23.49165 -126.09767,-10.50851 -52.58897,16.50091 -94.47863,58.39545 -110.98383,110.99675 -10.74543,34.24524 -9.51406,76.51782 3.18339,109.28437 12.74834,32.89787 36.76946,62.63959 66.10264,81.84491 l 12.59232,8.24458 v 16.41652 c 0,9.02908 -0.45,16.40649 -1,16.39424 -0.55,-0.012 -5.85064,-2.6269 -11.77918,-5.81032 z"
         id="path1016" />
      <path
         style="fill:#1a6191;stroke-width:1.33333"
         d="m -734.51562,1338.0702 c 0.32805,-0.328 -4.74507,-6.1398 -11.27358,-12.9152 -22.76185,-23.6224 -64.90409,-75.829 -141.38806,-175.1541 -40.70518,-52.8614 -47.62173,-62.5998 -50.43939,-71.0184 -1.04657,-3.127 -2.31127,-5.2769 -2.81045,-4.7778 -0.49918,0.4992 -0.89841,-4.7424 -0.88718,-11.6479 0.014,-8.5989 0.42772,-11.9252 1.31292,-10.5555 1.11041,1.7182 1.29538,1.6783 1.31292,-0.2833 0.0503,-5.6289 5.97898,-17.5191 12.0444,-24.1556 16.21159,-17.738 41.54894,-22.5537 62.64284,-11.9063 4.03335,2.0358 24.35154,17.4964 45.15154,34.3567 20.8,16.8603 41.17827,33.1485 45.28506,36.196 15.57447,11.5574 26.56819,10.5844 32.47485,-2.8743 1.41712,-3.229 1.88398,-43.5769 2.42215,-209.33238 l 0.66667,-205.3324 3.2699,-7.99997 c 4.50154,-11.0132 17.89785,-24.52091 28.08694,-28.32048 27.70342,-10.33078 56.38607,0.68315 68.53429,26.31668 l 4.10909,8.67044 0.69859,103.99953 c 0.38421,57.19974 0.83421,104.14952 1,104.33286 0.16578,0.18333 1.66125,0.33333 3.32325,0.33333 2.23067,0 4.13499,-1.86107 7.27356,-7.10838 20.01816,-33.46791 67.32554,-35.83645 88.9403,-4.45301 8.10241,11.76427 10.09787,20.53596 10.09787,44.38854 0,16.68573 0.36386,20.72926 1.91902,21.32603 2.95055,1.13222 5.318,-0.79108 11.75066,-9.54611 6.85491,-9.32973 13.95799,-15.32134 23.15247,-19.52961 5.35599,-2.45143 8.87697,-2.9805 19.84464,-2.98184 16.66534,-0.003 25.37184,3.08933 35.96347,12.76942 13.47534,12.31564 17.95714,26.09183 18.00983,55.35883 0.0148,8.18999 0.391,15.83995 0.83613,16.99992 1.53606,4.00288 5.55511,2.2274 9.56232,-4.22426 19.50289,-31.4 60.41783,-35.94584 84.9584,-9.43928 6.96867,7.52695 12.6452,18.92832 12.6906,25.48922 0.0165,2.39354 0.26422,2.57272 1.31293,0.94998 0.84228,-1.30334 1.22985,22.15074 1.11265,67.33304 -0.0989,38.1331 -0.54942,66.633 -1.00115,63.333 -0.55626,-4.0636 -1.12469,0.8847 -1.76136,15.3333 -1.03185,23.4169 -3.07845,37.1077 -9.16847,61.3331 -11.38299,45.2801 -38.83339,116.6656 -49.93629,129.8606 -1.74414,2.0728 -2.78789,4.1519 -2.31945,4.6204 0.46844,0.4684 -82.44847,0.8517 -184.25979,0.8517 -101.81132,0 -184.84311,-0.2684 -184.51509,-0.5965 z m -46.33363,-566.6038 c -60.21282,-32.33116 -99.49631,-92.88557 -104.28736,-160.75605 -3.18968,-45.18546 8.00921,-87.41095 33.27254,-125.45429 11.11782,-16.74202 36.32912,-41.96806 53.02044,-53.05146 28.86378,-19.16617 62.23369,-31.03395 93.50944,-33.256 8.38472,-0.59571 10.29266,-1.04243 7.33335,-1.71701 -2.25494,-0.51401 2.39856,-0.9118 10.66668,-0.9118 8.26813,0 12.92163,0.39779 10.66669,0.9118 -2.95931,0.67458 -1.05137,1.1213 7.33335,1.71701 31.3111,2.22456 64.75111,14.12645 93.50944,33.28165 17.01125,11.33076 40.62742,35.08785 52.16645,52.4777 17.05551,25.70346 27.98961,53.64144 32.26658,82.44513 12.18328,82.04967 -27.16044,161.7055 -100.14086,202.74651 -5.96888,3.35664 -11.51603,6.10297 -12.32699,6.10297 -0.99401,0 -1.47448,-5.14128 -1.47448,-15.77794 v -15.77794 l 11.00002,-7.09997 c 14.76006,-9.5269 38.46838,-33.27032 48.23077,-48.30217 13.00804,-20.02944 21.44722,-41.62229 25.61007,-65.52703 3.10849,-17.85016 1.89015,-48.91542 -2.62165,-66.84729 -14.71672,-58.49062 -57.05466,-103.60089 -114.21928,-121.69848 -18.16954,-5.75224 -30.21505,-7.5292 -50.66677,-7.47438 -44.21748,0.11853 -83.24631,15.74913 -115.60881,46.3 -64.6412,61.02264 -71.01368,159.63554 -14.82743,229.45177 10.43689,12.96873 24.72287,25.67361 40.76938,36.2572 l 11.00002,7.25515 v 15.28721 c 0,11.35275 -0.42894,15.28147 -1.66667,15.26492 -0.91667,-0.012 -6.54837,-2.6435 -12.51492,-5.84721 z"
         id="path1014" />
      <path
         style="fill:#125c8d;stroke-width:1.33333"
         d="m -643.10489,1337.6669 c 50.72616,-0.1935 134.12634,-0.1935 185.33373,-10e-5 51.2074,0.1934 9.70418,0.3517 -92.22937,0.3517 -101.93355,0 -143.83051,-0.1582 -93.10436,-0.3516 z m -101.73235,-12.6668 c -23.33001,-23.8117 -70.53042,-82.3341 -148.68162,-184.3459 -38.665,-50.4699 -41.8047,-55.0545 -44.27702,-64.653 -1.52273,-5.9119 -2.01357,-6.6872 -2.53226,-4 -0.35387,1.8333 -0.6653,-2.0666 -0.69207,-8.6666 -0.0282,-6.9545 0.35252,-10.5984 0.9055,-8.6666 0.83813,2.9279 1.05111,2.6341 1.75139,-2.4167 2.0191,-14.5625 13.79686,-29.5954 28.72901,-36.669 8.23772,-3.9023 10.06083,-4.2475 22.43416,-4.2475 12.8158,0 13.89658,0.2259 22.32495,4.6667 7.47148,3.9365 39.23376,28.7396 83.22522,64.9902 12.21289,10.0639 19.30177,13.6761 26.83922,13.6761 7.0251,0 12.53629,-4.8901 14.74168,-13.0802 1.0493,-3.8968 1.56702,-64.3412 1.77479,-207.20975 l 0.29336,-201.70815 2.84086,-8.27121 c 5.46276,-15.90484 17.78266,-28.02352 33.63976,-33.0903 10.54048,-3.36797 27.70692,-2.30152 37.83393,2.3504 10.2081,4.68918 20.13394,14.84742 25.42816,26.0235 l 4.25751,8.98763 0.66667,103.99952 0.66667,103.99953 2.89655,0.41251 c 2.2413,0.31919 4.08677,-1.34013 8.15787,-7.33506 2.89373,-4.26117 8.0852,-10.35053 11.53661,-13.53192 21.46087,-19.7818 55.93032,-17.25685 74.54571,5.46063 9.8308,11.99713 12.83694,24.16711 12.85342,52.03551 0.008,14.61679 0.32384,17.16219 2.21516,17.88795 1.52325,0.58452 3.59236,-0.76831 6.69169,-4.37517 14.65991,-17.06055 18.45201,-20.69216 24.90156,-23.84761 26.71059,-13.06818 58.05718,-2.2561 70.62102,24.35865 4.10634,8.69873 4.2285,9.4966 4.63423,30.26747 0.61158,31.30942 3.45902,35.54691 13.47711,20.05623 6.41576,-9.92047 12.44892,-15.32775 22.80294,-20.4373 6.6315,-3.27255 8.73706,-3.61891 22.00005,-3.61891 13.41864,0 15.32447,0.3228 22.39665,3.79341 9.86332,4.84034 19.62624,14.6032 24.47226,24.4721 l 3.79786,7.73433 0.66667,35.99981 0.66667,35.9999 0.70123,-33.9999 c 0.47447,-23.0049 0.70277,-11.5789 0.706,35.3332 0.003,41.0524 -0.2832,57.3681 -0.70123,39.9998 l -0.706,-29.3332 -0.93194,41.9998 c -0.98177,44.2468 -2.29407,56.9532 -8.50831,82.3825 -10.75079,43.9935 -35.61337,110.7775 -48.6595,130.7056 L -365.95741,1336 H -550.0086 -734.0598 Z m -34.88231,-553.64252 c -18.51061,-9.93834 -30.89866,-19.24214 -47.03143,-35.32205 -29.35321,-29.25703 -47.89881,-64.28583 -55.43166,-104.69898 -3.3709,-18.08465 -3.36732,-53.65046 0.007,-70.66634 14.49213,-73.07755 64.77053,-130.1657 134.22299,-152.40222 22.37041,-7.1623 34.0912,-8.87911 60.61842,-8.87911 17.81836,0 27.07845,0.61921 35.95171,2.40407 28.55061,5.74296 56.62124,17.73064 79.03993,33.75435 15.34436,10.96736 38.60094,34.85266 48.49627,49.80733 15.15069,22.89702 26.57646,51.10058 31.32192,77.31557 3.17099,17.5173 3.14058,50.98367 -0.0619,67.99969 -5.33185,28.3311 -17.72742,57.93899 -33.63989,80.35181 -10.69583,15.06513 -33.29478,37.33975 -47.77456,47.0889 -13.04524,8.78334 -26.49656,16.55863 -28.64646,16.55863 -0.83632,0 -1.35353,-5.7827 -1.35353,-15.13311 v -15.13314 l 11.46486,-7.62965 c 36.18762,-24.08223 61.98546,-62.44281 71.35552,-106.10344 3.93911,-18.35459 4.26937,-48.4203 0.7177,-65.33304 -17.21881,-81.99426 -85.39334,-138.66604 -166.81129,-138.66604 -45.17929,0 -87.26381,17.37919 -119.46246,49.33311 -14.96832,14.85454 -22.96812,25.728 -32.045,43.55608 -15.85601,31.14306 -21.87575,67.74798 -16.70021,101.55088 7.19908,47.01917 35.56452,91.506 74.23666,116.42878 l 13.13192,8.46304 0.056,15.66659 c 0.0308,8.61663 -0.094,15.65657 -0.27736,15.64432 -0.18333,-0.012 -5.30668,-2.69247 -11.38522,-5.95603 z m 85.43406,-375.00673 c 4.24345,-0.2654 10.84346,-0.26294 14.6667,0.005 3.82323,0.2684 0.35132,0.48555 -7.71537,0.48254 -8.06668,-0.003 -11.19478,-0.22262 -6.95133,-0.48801 z"
         id="path1012" />
      <path
         style="fill:#0e598c;stroke-width:1.33333"
         d="m -643.10489,1337.6669 c 50.72616,-0.1935 134.12634,-0.1935 185.33373,-10e-5 51.2074,0.1934 9.70418,0.3517 -92.22937,0.3517 -101.93355,0 -143.83051,-0.1582 -93.10436,-0.3516 z m -99.18402,-10.6668 c -24.59144,-24.9331 -87.20292,-102.9204 -167.47469,-208.6022 -27.48463,-36.1849 -28.23775,-37.67 -28.23775,-55.6809 0,-12.3816 0.41303,-14.9194 3.4801,-21.3823 5.29763,-11.1632 13.23755,-19.2249 24.27372,-24.6459 15.52132,-7.6241 30.98203,-7.6824 45.81256,-0.1726 3.06144,1.5502 23.3594,17.2185 45.10658,34.8184 47.72546,38.6241 51.6096,41.4527 59.56216,43.3768 11.54659,2.7935 18.19581,-2.899 20.97277,-17.9551 1.01456,-5.5007 1.4592,-68.1273 1.4592,-205.52526 0,-194.0581 0.0481,-197.76625 2.6728,-206.08752 11.29042,-35.79451 56.32579,-47.55824 83.77494,-21.88294 8.62661,8.06912 14.49274,19.27404 16.17182,30.88986 0.78311,5.41747 1.33867,48.97892 1.35425,106.18544 l 0.0264,96.99955 h 3.81435 c 3.22901,0 4.67045,-1.32378 9.3932,-8.6264 6.54862,-10.12594 13.94476,-16.55796 24.88569,-21.64172 10.53189,-4.89373 26.54382,-5.11158 38.28636,-0.52091 10.75772,4.20565 22.35537,15.22704 27.93035,26.54256 4.34093,8.81077 4.3594,8.93405 5.02361,33.54475 l 0.66667,24.70148 3.48813,0.40466 c 3.63518,0.42174 5.20869,-1.06855 13.84524,-13.11291 5.04141,-7.03066 16.2667,-15.16826 24.8615,-18.02297 10.06467,-3.34293 27.57667,-2.26544 37.37217,2.29944 14.60047,6.8041 25.60001,20.79555 28.95493,36.8307 0.81304,3.88608 1.47827,15.13603 1.47827,24.99989 0,16.08795 0.27142,18.20571 2.63643,20.5707 3.51331,3.51329 5.27632,2.55326 10.03026,-5.46197 22.05109,-37.17853 74.84603,-34.37806 92.9747,4.93176 l 3.0255,6.56043 -0.054,79.33298 c -0.0575,84.37 -0.46318,91.5361 -6.7941,119.9994 -9.85988,44.3294 -35.53757,114.7224 -50.22091,137.676 l -4.89796,7.6567 h -183.38929 -183.3893 z m 440.24227,-263.6655 c 2.2e-4,-38.1332 0.17085,-53.541 0.37918,-34.2397 0.20832,19.3014 0.20814,50.5012 -4.1e-4,69.333 -0.20855,18.8319 -0.379,3.0398 -0.37877,-35.0933 z m -638.81478,0 c -0.004,-6.6 0.2214,-9.4681 0.50104,-6.3735 0.27963,3.0945 0.28295,8.4945 0.007,11.9999 -0.27557,3.5054 -0.50436,0.9736 -0.50842,-5.6264 z m 159.14936,-293.68417 c -48.64837,-26.23068 -85.27139,-74.64971 -98.22473,-129.86218 -14.76974,-62.95476 3.65022,-130.39331 48.68086,-178.22883 69.1047,-73.40909 180.81735,-83.28922 261.92203,-23.165 13.0597,9.68137 32.02026,29.04753 41.74904,42.64213 16.721,23.36521 30.30316,55.84092 34.90302,83.45504 2.77929,16.68474 2.8356,48.10323 0.11387,63.52958 -10.63498,60.27727 -45.48955,109.77544 -98.89698,140.44701 -5.93875,3.41057 -11.18876,6.20105 -11.66669,6.20105 -0.47795,0 -0.83003,-6.74997 -0.7824,-14.99993 l 0.0865,-14.99993 10.91344,-7.04139 c 49.28175,-31.79677 78.15248,-89.32088 75.09497,-149.62456 -2.17046,-42.80844 -18.02776,-79.37452 -47.74245,-110.09153 -25.51577,-26.37646 -57.13687,-43.07123 -93.59163,-49.4129 -18.39286,-3.19963 -51.81824,-1.94281 -69.14204,2.59979 -68.04837,17.84345 -115.65597,69.58457 -127.09058,138.12516 -3.24721,19.46418 -2.16138,49.00723 2.4544,66.77926 11.49072,44.24242 36.06797,79.17458 72.47646,103.01233 l 12.45395,8.15398 v 14.41653 c 0,7.92908 -0.45,14.40805 -1,14.39769 -0.55001,-0.0107 -6.26998,-2.86034 -12.71107,-6.3333 z m 87.42657,-373.29958 c 4.24345,-0.2654 10.84346,-0.26294 14.6667,0.005 3.82323,0.2684 0.35132,0.48555 -7.71537,0.48254 -8.06668,-0.003 -11.19478,-0.22262 -6.95133,-0.48801 z"
         id="path1010" />
    </g>
  </g>
</svg>
